<svg xmlns="http://www.w3.org/2000/svg" viewBox="0 0 37.37 41.85"><defs><style>.cls-1{fill:#fff;}</style></defs><g id="Calque_2" data-name="Calque 2"><g id="Calque_1-2" data-name="Calque 1"><path id="Tracé_15" data-name="Tracé 15" class="cls-1" d="M18.68,19.43A9.72,9.72,0,1,1,28.4,9.72h0A9.72,9.72,0,0,1,18.68,19.43Zm0-17.94a8.23,8.23,0,1,0,8.23,8.23,8.23,8.23,0,0,0-8.23-8.23Z"/><path id="Tracé_16" data-name="Tracé 16" class="cls-1" d="M31.51,41.85a.75.75,0,1,1,0-1.49A4.37,4.37,0,0,0,35.88,36h0V32.14a9.74,9.74,0,0,0-9.72-9.72H11.21A9.73,9.73,0,0,0,1.5,32.14V36a4.36,4.36,0,0,0,4.36,4.37H23.17a.75.75,0,1,1,0,1.49H5.86A5.87,5.87,0,0,1,0,36V32.14A11.21,11.21,0,0,1,11.21,20.93h15A11.21,11.21,0,0,1,37.37,32.14V36A5.87,5.87,0,0,1,31.51,41.85Z"/></g></g></svg>