<svg xmlns="http://www.w3.org/2000/svg" viewBox="0 0 69.3 90"><defs><style>.cls-1{fill:#fff;}</style></defs><g id="Calque_2" data-name="Calque 2"><g id="Calque_1-2" data-name="Calque 1"><path class="cls-1" d="M34.65,39.64c10.23,0,18.55-10.86,18.55-21.09a18.55,18.55,0,0,0-37.1,0C16.1,28.78,24.42,39.64,34.65,39.64Z"/><path class="cls-1" d="M23.1,67.42h2.55V64.87a6.28,6.28,0,0,1,6.28-6.28h5.44a6.28,6.28,0,0,1,6.28,6.28v2.55H46.2a6.28,6.28,0,0,1,6.28,6.28v1c10.07-2.14,16.82-6,16.82-10.48A24.7,24.7,0,0,0,48.57,39.83a21.27,21.27,0,0,1-13,4.37H33.67a21.32,21.32,0,0,1-13-4.37A24.69,24.69,0,0,0,0,64.19c0,4.45,6.74,8.35,16.82,10.48v-1A6.28,6.28,0,0,1,23.1,67.42Z"/><path class="cls-1" d="M29.89,81.17V88a2,2,0,0,0,2,2h5.44a2,2,0,0,0,2-2V81.17h6.8a2,2,0,0,0,2-2V73.7a2,2,0,0,0-2-2H39.4V64.87a2,2,0,0,0-2-2H31.93a2,2,0,0,0-2,2v6.79H23.1a2,2,0,0,0-2,2v5.43a2,2,0,0,0,2,2Z"/></g></g></svg>