<svg xmlns="http://www.w3.org/2000/svg" viewBox="0 0 328.11 364.23"><defs><style>.cls-1{fill:#fff;}</style></defs><g id="Calque_2" data-name="Calque 2"><g id="Calque_1-2" data-name="Calque 1"><path class="cls-1" d="M31,344.06c30.43-19.84,54.94-45.8,77-74.51,20-26,43.79-58.51,51.1-91.1,7.23-32.25-14.32-53-36.58-72.41C88.9,76.81,55.46,47.6,18.88,22.16c-12-8.34-25.4,10-15.36,19.91,23.67,23.47,48.87,44.86,74.1,66.6,11.9,10.25,24.38,20.17,35.68,31.08,16.56,16,18.41,29.07,9,49.79C97.78,243.3,59.33,287.21,21.34,331.6c-5.51,6.44,1.6,17.69,9.62,12.46Z"/><path class="cls-1" d="M139.59,363.22a1023.31,1023.31,0,0,0,98.85-87.37C256,258.3,273.28,240.5,290,222.14c11.59-12.76,32.3-29.15,37.19-46.27,4-14.07-5.22-22.54-14.55-31.74-17.26-17-35.41-33.25-53.3-49.6-34.76-31.76-69.56-69-110.56-92.63C135.64-5.64,124.92,11,133.5,21.64c25.11,31.13,59,55.86,88.53,82.73q23.34,21.22,46.35,42.82c7,6.55,15,12.75,21.16,20l7.06,6.67q-7.16-5.87-10.3,5.23c-13.59,11.48-24.2,29.47-35.67,43.16q-18,21.45-36.58,42.38c-26.85,30.22-54,60.18-80.74,90.46-3.63,4.09,1.35,11.92,6.28,8.12Z"/></g></g></svg>