<svg xmlns="http://www.w3.org/2000/svg" viewBox="0 0 46.31 41.86"><defs><style>.cls-1{fill:#fff;}</style></defs><g id="Calque_2" data-name="Calque 2"><g id="Calque_1-2" data-name="Calque 1"><g id="Groupe_10" data-name="Groupe 10"><g id="Groupe_9" data-name="Groupe 9"><g id="Groupe_6" data-name="Groupe 6"><path id="Tracé_17" data-name="Tracé 17" class="cls-1" d="M46.31,5.33H9.08L8,0H0V1.45H6.77L12.63,29H39.72V27.55H13.81l-1.07-5H42.25ZM12.43,21.1l-3-14.31H44.47L41.1,21.1Z"/></g><g id="Groupe_7" data-name="Groupe 7"><path id="Tracé_18" data-name="Tracé 18" class="cls-1" d="M34.45,32.69A4.59,4.59,0,1,0,39,37.27h0A4.59,4.59,0,0,0,34.45,32.69Zm0,7.71a3.13,3.13,0,1,1,3.13-3.13A3.13,3.13,0,0,1,34.45,40.4Z"/></g><g id="Groupe_8" data-name="Groupe 8"><path id="Tracé_19" data-name="Tracé 19" class="cls-1" d="M18.6,32.69a4.59,4.59,0,1,0,4.58,4.58A4.58,4.58,0,0,0,18.6,32.69Zm0,7.71a3.13,3.13,0,1,1,3.13-3.13h0A3.13,3.13,0,0,1,18.6,40.4Z"/></g></g></g></g></g></svg>