<?xml version="1.0" standalone="no"?>
<svg xmlns:xlink="http://www.w3.org/1999/xlink" id="wave" style="transform:rotate(0deg); transition: 0.3s" viewBox="0 0 1440 490" version="1.1" xmlns="http://www.w3.org/2000/svg"><defs><linearGradient id="sw-gradient-0" x1="0" x2="0" y1="1" y2="0"><stop stop-color="rgba(134.757, 134.757, 134.757, 1)" offset="0%"/><stop stop-color="rgba(203.061, 203.061, 203.061, 1)" offset="100%"/></linearGradient></defs><path style="transform:translate(0, 0px); opacity:1" fill="url(#sw-gradient-0)" d="M0,294L60,318.5C120,343,240,392,360,351.2C480,310,600,180,720,155.2C840,131,960,212,1080,212.3C1200,212,1320,131,1440,81.7C1560,33,1680,16,1800,65.3C1920,114,2040,229,2160,253.2C2280,278,2400,212,2520,163.3C2640,114,2760,82,2880,81.7C3000,82,3120,114,3240,122.5C3360,131,3480,114,3600,163.3C3720,212,3840,327,3960,367.5C4080,408,4200,376,4320,359.3C4440,343,4560,343,4680,351.2C4800,359,4920,376,5040,334.8C5160,294,5280,196,5400,187.8C5520,180,5640,261,5760,245C5880,229,6000,114,6120,81.7C6240,49,6360,98,6480,98C6600,98,6720,49,6840,40.8C6960,33,7080,65,7200,81.7C7320,98,7440,98,7560,89.8C7680,82,7800,65,7920,114.3C8040,163,8160,278,8280,269.5C8400,261,8520,131,8580,65.3L8640,0L8640,490L8580,490C8520,490,8400,490,8280,490C8160,490,8040,490,7920,490C7800,490,7680,490,7560,490C7440,490,7320,490,7200,490C7080,490,6960,490,6840,490C6720,490,6600,490,6480,490C6360,490,6240,490,6120,490C6000,490,5880,490,5760,490C5640,490,5520,490,5400,490C5280,490,5160,490,5040,490C4920,490,4800,490,4680,490C4560,490,4440,490,4320,490C4200,490,4080,490,3960,490C3840,490,3720,490,3600,490C3480,490,3360,490,3240,490C3120,490,3000,490,2880,490C2760,490,2640,490,2520,490C2400,490,2280,490,2160,490C2040,490,1920,490,1800,490C1680,490,1560,490,1440,490C1320,490,1200,490,1080,490C960,490,840,490,720,490C600,490,480,490,360,490C240,490,120,490,60,490L0,490Z"/><defs><linearGradient id="sw-gradient-1" x1="0" x2="0" y1="1" y2="0"><stop stop-color="rgba(102.882, 102.882, 102.882, 1)" offset="0%"/><stop stop-color="rgba(118.82, 118.82, 118.82, 1)" offset="100%"/></linearGradient></defs><path style="transform:translate(0, 50px); opacity:0.9" fill="url(#sw-gradient-1)" d="M0,0L60,24.5C120,49,240,98,360,130.7C480,163,600,180,720,179.7C840,180,960,163,1080,163.3C1200,163,1320,180,1440,163.3C1560,147,1680,98,1800,106.2C1920,114,2040,180,2160,236.8C2280,294,2400,343,2520,334.8C2640,327,2760,261,2880,245C3000,229,3120,261,3240,261.3C3360,261,3480,229,3600,245C3720,261,3840,327,3960,343C4080,359,4200,327,4320,302.2C4440,278,4560,261,4680,261.3C4800,261,4920,278,5040,261.3C5160,245,5280,196,5400,179.7C5520,163,5640,180,5760,220.5C5880,261,6000,327,6120,359.3C6240,392,6360,392,6480,392C6600,392,6720,392,6840,351.2C6960,310,7080,229,7200,212.3C7320,196,7440,245,7560,261.3C7680,278,7800,261,7920,261.3C8040,261,8160,278,8280,294C8400,310,8520,327,8580,334.8L8640,343L8640,490L8580,490C8520,490,8400,490,8280,490C8160,490,8040,490,7920,490C7800,490,7680,490,7560,490C7440,490,7320,490,7200,490C7080,490,6960,490,6840,490C6720,490,6600,490,6480,490C6360,490,6240,490,6120,490C6000,490,5880,490,5760,490C5640,490,5520,490,5400,490C5280,490,5160,490,5040,490C4920,490,4800,490,4680,490C4560,490,4440,490,4320,490C4200,490,4080,490,3960,490C3840,490,3720,490,3600,490C3480,490,3360,490,3240,490C3120,490,3000,490,2880,490C2760,490,2640,490,2520,490C2400,490,2280,490,2160,490C2040,490,1920,490,1800,490C1680,490,1560,490,1440,490C1320,490,1200,490,1080,490C960,490,840,490,720,490C600,490,480,490,360,490C240,490,120,490,60,490L0,490Z"/><defs><linearGradient id="sw-gradient-2" x1="0" x2="0" y1="1" y2="0"><stop stop-color="rgba(75.561, 75.561, 75.561, 1)" offset="0%"/><stop stop-color="rgba(184.847, 184.847, 184.847, 1)" offset="100%"/></linearGradient></defs><path style="transform:translate(0, 100px); opacity:0.8" fill="url(#sw-gradient-2)" d="M0,294L60,269.5C120,245,240,196,360,187.8C480,180,600,212,720,245C840,278,960,310,1080,302.2C1200,294,1320,245,1440,220.5C1560,196,1680,196,1800,196C1920,196,2040,196,2160,179.7C2280,163,2400,131,2520,122.5C2640,114,2760,131,2880,155.2C3000,180,3120,212,3240,253.2C3360,294,3480,343,3600,375.7C3720,408,3840,425,3960,383.8C4080,343,4200,245,4320,171.5C4440,98,4560,49,4680,32.7C4800,16,4920,33,5040,73.5C5160,114,5280,180,5400,245C5520,310,5640,376,5760,400.2C5880,425,6000,408,6120,375.7C6240,343,6360,294,6480,269.5C6600,245,6720,245,6840,220.5C6960,196,7080,147,7200,163.3C7320,180,7440,261,7560,245C7680,229,7800,114,7920,130.7C8040,147,8160,294,8280,351.2C8400,408,8520,376,8580,359.3L8640,343L8640,490L8580,490C8520,490,8400,490,8280,490C8160,490,8040,490,7920,490C7800,490,7680,490,7560,490C7440,490,7320,490,7200,490C7080,490,6960,490,6840,490C6720,490,6600,490,6480,490C6360,490,6240,490,6120,490C6000,490,5880,490,5760,490C5640,490,5520,490,5400,490C5280,490,5160,490,5040,490C4920,490,4800,490,4680,490C4560,490,4440,490,4320,490C4200,490,4080,490,3960,490C3840,490,3720,490,3600,490C3480,490,3360,490,3240,490C3120,490,3000,490,2880,490C2760,490,2640,490,2520,490C2400,490,2280,490,2160,490C2040,490,1920,490,1800,490C1680,490,1560,490,1440,490C1320,490,1200,490,1080,490C960,490,840,490,720,490C600,490,480,490,360,490C240,490,120,490,60,490L0,490Z"/></svg>