<svg xmlns="http://www.w3.org/2000/svg" viewBox="0 0 3015.24 2018.5"><defs><style>.cls-1{fill:#bcbcbc;stroke:#bcbcbc;}.cls-2{fill:#bebebe;stroke:#bebebe;}.cls-3{fill:#c2c2c2;stroke:#c2c2c2;}.cls-4{fill:#bfbfbf;stroke:#bfbfbf;}.cls-5{fill:#c3c3c3;stroke:#c3c3c3;}.cls-6{fill:#c6c6c6;stroke:#c6c6c6;}.cls-7{fill:#b8b8b8;stroke:#b8b8b8;}.cls-8{fill:#c1c1c1;stroke:#c1c1c1;}.cls-9{fill:#b6b6b6;stroke:#b6b6b6;}.cls-10{fill:#bbb;stroke:#bbb;}.cls-11{fill:#c8c8c8;stroke:#c8c8c8;}.cls-12{fill:#b1b1b1;stroke:#b1b1b1;}.cls-13{fill:#b5b5b5;stroke:#b5b5b5;}.cls-14{fill:#b2b2b2;stroke:#b2b2b2;}.cls-15{fill:#b7b7b7;stroke:#b7b7b7;}.cls-16{fill:#b9b9b9;stroke:#b9b9b9;}.cls-17{fill:#ccc;stroke:#ccc;}.cls-18{fill:#adadad;stroke:#adadad;}.cls-19{fill:#b0b0b0;stroke:#b0b0b0;}.cls-20{fill:#b3b3b3;stroke:#b3b3b3;}.cls-21{fill:#cbcbcb;stroke:#cbcbcb;}.cls-22{fill:#c7c7c7;stroke:#c7c7c7;}.cls-23{fill:#cdcdcd;stroke:#cdcdcd;}.cls-24{fill:#c4c4c4;stroke:#c4c4c4;}.cls-25{fill:#acacac;stroke:#acacac;}.cls-26{fill:#aeaeae;stroke:#aeaeae;}.cls-27{fill:#c9c9c9;stroke:#c9c9c9;}.cls-28{fill:#ababab;stroke:#ababab;}.cls-29{fill:#bdbdbd;stroke:#bdbdbd;}.cls-30{fill:#d1d1d1;stroke:#d1d1d1;}.cls-31{fill:#cfcfcf;stroke:#cfcfcf;}.cls-32{fill:#d2d2d2;stroke:#d2d2d2;}.cls-33{fill:#a8a8a8;stroke:#a8a8a8;}.cls-34{fill:#a7a7a7;stroke:#a7a7a7;}.cls-35{fill:#b4b4b4;stroke:#b4b4b4;}.cls-36{fill:#d0d0d0;stroke:#d0d0d0;}.cls-37{fill:#d3d3d3;stroke:#d3d3d3;}.cls-38{fill:#a6a6a6;stroke:#a6a6a6;}.cls-39{fill:#cecece;stroke:#cecece;}.cls-40{fill:#aaa;stroke:#aaa;}.cls-41{fill:#d7d7d7;stroke:#d7d7d7;}.cls-42{fill:#d6d6d6;stroke:#d6d6d6;}.cls-43{fill:#d4d4d4;stroke:#d4d4d4;}.cls-44{fill:#a2a2a2;stroke:#a2a2a2;}.cls-45{fill:#a5a5a5;stroke:#a5a5a5;}.cls-46{fill:#d9d9d9;stroke:#d9d9d9;}.cls-47{fill:#a0a0a0;stroke:#a0a0a0;}.cls-48{fill:#dcdcdc;stroke:#dcdcdc;}.cls-49{fill:#a1a1a1;stroke:#a1a1a1;}.cls-50{fill:#a4a4a4;stroke:#a4a4a4;}.cls-51{fill:#9f9f9f;stroke:#9f9f9f;}.cls-52{fill:#9c9c9c;stroke:#9c9c9c;}.cls-53{fill:#d8d8d8;stroke:#d8d8d8;}.cls-54{fill:#ddd;stroke:#ddd;}.cls-55{fill:#dadada;stroke:#dadada;}.cls-56{fill:#dfdfdf;stroke:#dfdfdf;}.cls-57{fill:#dedede;stroke:#dedede;}.cls-58{fill:#9a9a9a;stroke:#9a9a9a;}.cls-59{fill:#9b9b9b;stroke:#9b9b9b;}.cls-60{fill:#a9a9a9;stroke:#a9a9a9;}.cls-61{fill:#969696;stroke:#969696;}.cls-62{fill:#979797;stroke:#979797;}.cls-63{fill:#989898;stroke:#989898;}.cls-64{fill:#9d9d9d;stroke:#9d9d9d;}.cls-65{fill:#949494;stroke:#949494;}.cls-66{fill:#999;stroke:#999;}.cls-67{fill:#d5d5d5;stroke:#d5d5d5;}.cls-68{fill:#909090;stroke:#909090;}.cls-69{fill:#8e8e8e;stroke:#8e8e8e;}.cls-70{fill:#959595;stroke:#959595;}.cls-71{fill:#8a8a8a;stroke:#8a8a8a;}.cls-72{fill:#8d8d8d;stroke:#8d8d8d;}.cls-73{fill:#919191;stroke:#919191;}.cls-74{fill:#939393;stroke:#939393;}.cls-75{fill:#8f8f8f;stroke:#8f8f8f;}.cls-76{fill:#888;stroke:#888;}.cls-77{fill:#878787;stroke:#878787;}.cls-78{fill:#868686;stroke:#868686;}.cls-79{fill:#818181;stroke:#818181;}.cls-80{fill:#858585;stroke:#858585;}.cls-81{fill:#828282;stroke:#828282;}.cls-82{fill:#848484;stroke:#848484;}.cls-83{fill:#898989;stroke:#898989;}.cls-84{fill:#838383;stroke:#838383;}.cls-85{fill:#8c8c8c;stroke:#8c8c8c;}.cls-86{fill:gray;stroke:gray;}.cls-87{fill:#7f7f7f;stroke:#7f7f7f;}.cls-88{fill:#7d7d7d;stroke:#7d7d7d;}.cls-89{fill:#797979;stroke:#797979;}.cls-90{fill:#7b7b7b;stroke:#7b7b7b;}.cls-91{fill:#7a7a7a;stroke:#7a7a7a;}.cls-92{fill:#7c7c7c;stroke:#7c7c7c;}.cls-93{fill:#757575;stroke:#757575;}.cls-94{fill:#767676;stroke:#767676;}.cls-95{fill:#747474;stroke:#747474;}.cls-96{fill:#727272;stroke:#727272;}.cls-97{fill:#737373;stroke:#737373;}.cls-98{opacity:0.35;}</style></defs><g id="Calque_2" data-name="Calque 2"><g id="Calque_1-2" data-name="Calque 1"><g id="Calque_2-2" data-name="Calque 2"><g id="Calque_1-2-2" data-name="Calque 1-2"><g id="bk-0.55234195560829"><path class="cls-1" d="M1146,830,951,975h170Z"/><path class="cls-2" d="M1146,830,927,781l24,194Z"/><path class="cls-3" d="M927,781l-90,80L951,975Z"/><path class="cls-1" d="M1146,830l-15-185L927,781Z"/><path class="cls-4" d="M1131,645,951,635,927,781Z"/><path class="cls-5" d="M927,781l-97-97,7,177Z"/><path class="cls-6" d="M675,869l92,92,70-100Z"/><path class="cls-5" d="M837,861,767,961l184,14Z"/><path class="cls-3" d="M951,635,830,684l97,97Z"/><path class="cls-7" d="M1121,975l230-110-205-35Z"/><path class="cls-7" d="M1146,830l150-190-165,5Z"/><path class="cls-8" d="M835,1199l172,2L951,975Z"/><path class="cls-2" d="M951,975l56,226,114-226Z"/><path class="cls-9" d="M1121,975l214,44,16-154Z"/><path class="cls-7" d="M1168,1192l167-173-214-44Z"/><path class="cls-10" d="M1007,1201l161-9-47-217Z"/><path class="cls-9" d="M1351,865l-55-225L1146,830Z"/><path class="cls-1" d="M1131,645l36-134L951,635Z"/><path class="cls-6" d="M830,684,675,869l162-8Z"/><path class="cls-6" d="M664,1028l171,171L767,961Z"/><path class="cls-5" d="M767,961l68,238L951,975Z"/><path class="cls-7" d="M1296,640,1167,511l-36,134Z"/><path class="cls-5" d="M951,635,799,483l31,201Z"/><path class="cls-11" d="M675,869l-11,159,103-67Z"/><path class="cls-2" d="M962,1326l133-37-88-88Z"/><path class="cls-1" d="M1007,1201l88,88,73-97Z"/><path class="cls-12" d="M1478,1162l-20-190-123,47Z"/><path class="cls-13" d="M1357,1211l-22-192-167,173Z"/><path class="cls-14" d="M1335,1019l123-47L1351,865Z"/><path class="cls-14" d="M1351,865l131-209-186-16Z"/><path class="cls-8" d="M835,1199l127,127,45-125Z"/><path class="cls-2" d="M1167,511,930,444l21,191Z"/><path class="cls-11" d="M830,684,611,635l64,234Z"/><path class="cls-9" d="M1282,1306l75-95-189-19Z"/><path class="cls-3" d="M930,444,799,483,951,635Z"/><path class="cls-15" d="M1275,1469l7-163-187-17Z"/><path class="cls-16" d="M1095,1289l187,17-114-114Z"/><path class="cls-11" d="M660,514,611,635l219,49Z"/><path class="cls-17" d="M482,1016l103,103,79-91Z"/><path class="cls-18" d="M1620,964l-91-91-71,99Z"/><path class="cls-19" d="M1458,972l71-99-178-8Z"/><path class="cls-9" d="M1296,640l-16-186-113,57Z"/><path class="cls-20" d="M1435,439l-155,15,16,186Z"/><path class="cls-1" d="M1167,511l-25-195L930,444Z"/><path class="cls-19" d="M1529,873l-47-217L1351,865Z"/><path class="cls-21" d="M482,1016l182,12,11-159Z"/><path class="cls-11" d="M664,1028l-79,91,250,80Z"/><path class="cls-3" d="M835,1199l11,181,116-54Z"/><path class="cls-19" d="M1510,1364l-32-202-121,49Z"/><path class="cls-14" d="M1357,1211l121-49-143-143Z"/><path class="cls-6" d="M799,483,660,514,830,684Z"/><path class="cls-22" d="M768,282,660,514l139-31Z"/><path class="cls-6" d="M639,1343l207,37-11-181Z"/><path class="cls-16" d="M1152,1516l123-47-180-180Z"/><path class="cls-23" d="M503,527l5,175,103-67Z"/><path class="cls-21" d="M611,635,508,702,675,869Z"/><path class="cls-23" d="M508,702,476,840l199,29Z"/><path class="cls-23" d="M476,840l6,176L675,869Z"/><path class="cls-7" d="M1280,454,1142,316l25,195Z"/><path class="cls-24" d="M930,444,768,282l31,201Z"/><path class="cls-18" d="M1478,1162l142-198-162,8Z"/><path class="cls-25" d="M1529,873l111-59L1482,656Z"/><path class="cls-26" d="M1605,439H1435l47,217Z"/><path class="cls-12" d="M1482,656l-47-217L1296,640Z"/><path class="cls-9" d="M1280,454l78-92-216-46Z"/><path class="cls-17" d="M484,1358l155-15-54-224Z"/><path class="cls-27" d="M585,1119l54,224,196-144Z"/><path class="cls-28" d="M1620,964l20-150-111,59Z"/><path class="cls-20" d="M1435,439l-77-77-78,92Z"/><path class="cls-4" d="M1142,316,927,271l3,173Z"/><path class="cls-1" d="M1152,1516l-57-227-133,37Z"/><path class="cls-14" d="M1282,1306l228,58-153-153Z"/><path class="cls-28" d="M1478,1162l162-8-20-190Z"/><path class="cls-29" d="M1152,1516,962,1326l46,216Z"/><path class="cls-8" d="M1008,1542l-46-216-116,54Z"/><path class="cls-22" d="M639,1343l121,121,86-84Z"/><path class="cls-23" d="M485,339l18,188,157-13Z"/><path class="cls-17" d="M660,514,503,527,611,635Z"/><path class="cls-30" d="M314,848l168,168-6-176Z"/><path class="cls-30" d="M331,1035l96,96,55-115Z"/><path class="cls-31" d="M482,1016l-55,115,158-12Z"/><path class="cls-32" d="M331,1035l151-19L314,848Z"/><path class="cls-28" d="M1640,814l10-160-168,2Z"/><path class="cls-5" d="M760,1464l248,78L846,1380Z"/><path class="cls-5" d="M927,271,768,282,930,444Z"/><path class="cls-18" d="M1510,1364l130-210-162,8Z"/><path class="cls-33" d="M1620,964l181,11L1640,814Z"/><path class="cls-34" d="M1640,814l171,1L1650,654Z"/><path class="cls-12" d="M1439,1463l71-99-228-58Z"/><path class="cls-35" d="M1280,1644l159-181-164,6Z"/><path class="cls-35" d="M1275,1469l164-6-157-157Z"/><path class="cls-15" d="M1280,1644l-5-175-123,47Z"/><path class="cls-30" d="M314,848l162-8,32-138Z"/><path class="cls-31" d="M427,1131l57,227,101-239Z"/><path class="cls-27" d="M768,282,614,298l46,216Z"/><path class="cls-36" d="M325,519,508,702l-5-175Z"/><path class="cls-37" d="M273,637l41,211L508,702Z"/><path class="cls-28" d="M1650,654l-45-215L1482,656Z"/><path class="cls-12" d="M1435,439l24-146-101,69Z"/><path class="cls-15" d="M1360,194l-193-23-25,145Z"/><path class="cls-1" d="M1142,316l25-145L927,271Z"/><path class="cls-24" d="M927,271,797,141,768,282Z"/><path class="cls-27" d="M768,282l-99-99L614,298Z"/><path class="cls-13" d="M1360,194,1142,316l216,46Z"/><path class="cls-32" d="M296,1340l188,18-57-227Z"/><path class="cls-27" d="M639,1343l-34,136,155-15Z"/><path class="cls-26" d="M1605,439,1459,293l-24,146Z"/><path class="cls-17" d="M484,1358l121,121,34-136Z"/><path class="cls-29" d="M999,1703l147-23-138-138Z"/><path class="cls-14" d="M1459,293l-99-99-2,168Z"/><path class="cls-38" d="M1809,1153l-8-178-161,179Z"/><path class="cls-33" d="M1640,1154l161-179-181-11Z"/><path class="cls-33" d="M1650,654l182-158-227-57Z"/><path class="cls-28" d="M1663,1347l-23-193-130,210Z"/><path class="cls-17" d="M614,298,485,339,660,514Z"/><path class="cls-38" d="M1801,975l10-160-171-1Z"/><path class="cls-2" d="M1000,4,939,113l228,58Z"/><path class="cls-2" d="M1167,171,939,113,927,271Z"/><path class="cls-39" d="M614,298,449,133l36,206Z"/><path class="cls-40" d="M1671,1525l-8-178-153,17Z"/><path class="cls-3" d="M939,113,797,141,927,271Z"/><path class="cls-22" d="M797,141,669,183l99,99Z"/><path class="cls-10" d="M1146,1680l6-164-144,26Z"/><path class="cls-7" d="M1146,1680l134-36-128-128Z"/><path class="cls-18" d="M1439,1463l232,62-161-161Z"/><path class="cls-30" d="M485,339,325,519l178,8Z"/><path class="cls-37" d="M325,519,273,637l235,65Z"/><path class="cls-41" d="M130,1004l133,133,68-102Z"/><path class="cls-38" d="M1811,815l-15-185-146,24Z"/><path class="cls-28" d="M1605,439l85-85-231-61Z"/><path class="cls-8" d="M999,1703l9-161L799,1673Z"/><path class="cls-42" d="M130,1004l201,31L314,848Z"/><path class="cls-43" d="M331,1035l-68,102,164-6Z"/><path class="cls-39" d="M484,1358l-9,161,130-40Z"/><path class="cls-34" d="M1663,1347l146-194-169,1Z"/><path class="cls-44" d="M1801,975l192-148-182-12Z"/><path class="cls-5" d="M799,1673l209-131-248-78Z"/><path class="cls-22" d="M666,1710l133-37-39-209Z"/><path class="cls-34" d="M1832,496,1690,354l-85,85Z"/><path class="cls-12" d="M1459,293l-2-172-97,73Z"/><path class="cls-30" d="M296,1340l179,179,9-161Z"/><path class="cls-27" d="M605,1479l61,231,94-246Z"/><path class="cls-43" d="M263,1137l33,203,131-209Z"/><path class="cls-26" d="M1617,111l-160,10,2,172Z"/><polygon class="cls-7" points="1258.54 1 1167 171 1154.92 1 1258.54 1"/><polygon class="cls-10" points="1167 171 1000 4 1028.88 1 1154.92 1 1167 171"/><path class="cls-5" d="M939,113,827,1,797,141Z"/><polygon class="cls-11" points="797 141 669 183 627 1 657 1 797 141"/><path class="cls-44" d="M1997,661,1832,496l-36,134Z"/><path class="cls-38" d="M1796,630l36-134L1650,654Z"/><path class="cls-28" d="M1690,354l-73-243L1459,293Z"/><path class="cls-44" d="M1997,661l-201-31,15,185Z"/><path class="cls-25" d="M1620,1644l51-119-232-62Z"/><path class="cls-45" d="M1663,1347l171,1-25-195Z"/><path class="cls-39" d="M411,1625l255,85L475,1519Z"/><path class="cls-17" d="M475,1519l191,191-61-231Z"/><path class="cls-29" d="M1010,1884l127-43L999,1703Z"/><polygon class="cls-9" points="1360 194 1167 171 1258.54 1 1301.47 1 1360 194"/><polygon class="cls-8" points="1000 4 827 1 999.76 1 1000 4"/><path class="cls-8" d="M1000,4,827,1,939,113Z"/><path class="cls-30" d="M449,133,293,317l192,22Z"/><path class="cls-14" d="M1339,1873l145-195-204-34Z"/><path class="cls-12" d="M1280,1644l204,34-45-215Z"/><path class="cls-7" d="M1137,1841l143-197-134,36Z"/><path class="cls-46" d="M93,797l37,207L314,848Z"/><path class="cls-41" d="M263,1137l-104,66,137,137Z"/><path class="cls-45" d="M1826,1510l8-162-171-1Z"/><path class="cls-47" d="M2024,1028l-31-201L1801,975Z"/><path class="cls-46" d="M130,1004l29,199,104-66Z"/><path class="cls-32" d="M245,1459l166,166,64-106Z"/><path class="cls-17" d="M449,133,614,298l55-115Z"/><path class="cls-37" d="M485,339,293,317l32,202Z"/><path class="cls-41" d="M325,519,111,645l162-8Z"/><path class="cls-41" d="M273,637,93,797l221,51Z"/><path class="cls-46" d="M111,645,93,797,273,637Z"/><polygon class="cls-48" points="159 1203 144 1358 0.5 1330.67 0.5 1284.01 159 1203"/><polygon class="cls-17" points="669 183 449 133 579.46 1 627 1 669 183"/><path class="cls-46" d="M74,438l37,207L325,519Z"/><path class="cls-26" d="M1484,1678l136-34-181-181Z"/><path class="cls-34" d="M1671,1525l155-15-163-163Z"/><path class="cls-44" d="M2024,1028l-223-53,8,178Z"/><path class="cls-5" d="M810,1854l189-151-200-30Z"/><path class="cls-1" d="M999,1703l138,138,9-161Z"/><path class="cls-25" d="M1484,1678l120,120,16-154Z"/><polygon class="cls-14" points="1457 121 1360 194 1301.47 1 1337 1 1457 121"/><polygon class="cls-29" points="1028.88 1 1000 4 999.76 1 1028.88 1"/><path class="cls-43" d="M245,1459l230,60L296,1340Z"/><path class="cls-33" d="M1785,109l-168,2,73,243Z"/><polygon class="cls-12" points="1479.66 1 1457 121 1337 1 1479.66 1"/><path class="cls-41" d="M144,1358l101,101,51-119Z"/><path class="cls-49" d="M1998,492,1866,360l-34,136Z"/><path class="cls-50" d="M1832,496l34-136-176-6Z"/><path class="cls-47" d="M1993,827l4-166L1811,815Z"/><path class="cls-11" d="M621,1835l189,19L666,1710Z"/><path class="cls-6" d="M666,1710l144,144-11-181Z"/><path class="cls-51" d="M2006,1180l18-152-215,125Z"/><path class="cls-52" d="M1993,827l136-34L1997,661Z"/><path class="cls-8" d="M810,1854l200,30-11-181Z"/><path class="cls-45" d="M1851,1705l-25-195-155,15Z"/><path class="cls-44" d="M1834,1348l122-48-147-147Z"/><polygon class="cls-48" points="159 1203 0.5 1165.87 0.5 1102.63 130 1004 159 1203"/><path class="cls-53" d="M159,1203l-15,155,152-18Z"/><path class="cls-39" d="M496,1880l125-45L411,1625Z"/><path class="cls-47" d="M1977,1491l-21-191-122,48Z"/><polygon class="cls-18" points="1617 111 1457 121 1479.66 1 1507 1 1617 111"/><polygon class="cls-22" points="827 1 797 141 657 1 827 1"/><path class="cls-47" d="M1956,1300l50-120-197-27Z"/><path class="cls-9" d="M1271,1975l68-102-202-32Z"/><path class="cls-9" d="M1137,1841l202,32-59-229Z"/><path class="cls-34" d="M1620,1644l231,61-180-180Z"/><path class="cls-43" d="M300,1684l111-59L245,1459Z"/><path class="cls-17" d="M411,1625l210,210,45-125Z"/><path class="cls-2" d="M941,1985l165-5-96-96Z"/><path class="cls-52" d="M2117,611,1998,492l-1,169Z"/><path class="cls-47" d="M1997,661l1-169-166,4Z"/><path class="cls-45" d="M1866,360l-81-251-95,245Z"/><path class="cls-19" d="M1339,1873l136-34,9-161Z"/><path class="cls-41" d="M293,317,74,438l251,81Z"/><polygon class="cls-54" points="130 1004 0.5 874.5 0.5 821.85 93 797 130 1004"/><path class="cls-55" d="M102,296,74,438,293,317Z"/><path class="cls-46" d="M102,296l191,21L118,142Z"/><polygon class="cls-39" points="579.46 1 449 133 468.62 1 579.46 1"/><polygon class="cls-56" points="93 797 0.5 821.85 0.5 704.5 93 797"/><polygon class="cls-57" points="130 1004 0.5 1013.84 0.5 874.5 130 1004"/><path class="cls-18" d="M1475,1839l129-41-120-120Z"/><polygon class="cls-54" points="111 645 93 797 0.5 704.5 0.5 651.18 111 645"/><path class="cls-49" d="M2002,156l-217-47,81,251Z"/><polygon class="cls-28" points="1682 6 1617 111 1507 1 1646.64 1 1682 6"/><path class="cls-46" d="M148,1532l97-73L144,1358Z"/><path class="cls-41" d="M148,1532l152,152-55-225Z"/><path class="cls-33" d="M1785,109,1682,6l-65,105Z"/><path class="cls-8" d="M941,1985l69-101-200-30Z"/><path class="cls-1" d="M1010,1884l96,96,31-139Z"/><path class="cls-12" d="M1339,1873l96,96,40-130Z"/><path class="cls-25" d="M1475,1839l165,165-36-206Z"/><path class="cls-58" d="M2199,1033l-70-240-105,235Z"/><path class="cls-52" d="M2024,1028l105-235-136,34Z"/><polygon class="cls-48" points="148 1532 0.5 1495.94 0.5 1435.27 144 1358 148 1532"/><polygon class="cls-5" points="941 1985 897.15 2018 837.33 2018 810 1854 941 1985"/><path class="cls-43" d="M246,100l47,217L449,133Z"/><polygon class="cls-57" points="111 645 0.5 651.18 0.5 534.5 111 645"/><path class="cls-58" d="M2175,1349l-56-226-113,57Z"/><path class="cls-52" d="M2006,1180l113-57-95-95Z"/><path class="cls-52" d="M2175,1349l-169-169-50,120Z"/><polygon class="cls-54" points="111 645 0.5 534.5 0.5 469.5 74 438 111 645"/><polygon class="cls-32" points="468.62 1 449 133 246 100 439.7 1 468.62 1"/><polygon class="cls-9" points="1276.51 2018 1253.59 2018 1271 1975 1276.51 2018"/><path class="cls-16" d="M1106,1980l165-5-134-134Z"/><path class="cls-51" d="M1998,492V322l-132,38Z"/><polygon class="cls-38" points="1785 109 1682 6 1687.37 1 1776.24 1 1785 109"/><path class="cls-52" d="M2124,448,1998,322V492Z"/><path class="cls-59" d="M2129,793l-12-182-120,50Z"/><path class="cls-49" d="M1851,1705l126-214-151,19Z"/><path class="cls-44" d="M1826,1510l151-19-143-143Z"/><polygon class="cls-41" points="247.18 1 246 100 167 21 185.2 1 247.18 1"/><polygon class="cls-57" points="130 1004 0.5 1102.63 0.5 1013.84 130 1004"/><path class="cls-32" d="M300,1684l196,196-85-255Z"/><polygon class="cls-6" points="837.33 2018 667.63 2018 810 1854 837.33 2018"/><polygon class="cls-54" points="102 296 74 438 0.5 364.5 0.5 341.98 102 296"/><polygon class="cls-57" points="74 438 0.5 469.5 0.5 364.5 74 438"/><polygon class="cls-25" points="1682 6 1646.64 1 1677 1 1682 6"/><path class="cls-20" d="M1271,1975l164-6-96-96Z"/><path class="cls-38" d="M1778,1802l73-97-231-61Z"/><path class="cls-60" d="M1778,1802l-158-158-16,154Z"/><path class="cls-61" d="M2360,1194l-161-161-80,90Z"/><path class="cls-58" d="M2119,1123l80-90-175-5Z"/><path class="cls-62" d="M2129,793l251-89-263-93Z"/><path class="cls-63" d="M2324,478l-200-30-7,163Z"/><path class="cls-59" d="M2117,611l7-163-126,44Z"/><polygon class="cls-44" points="2038 22 1785 109 1776.24 1 1980.57 1 2038 22"/><path class="cls-33" d="M1640,2004l138-202-174-4Z"/><polygon class="cls-57" points="102 296 0.5 341.98 0.5 194.5 102 296"/><path class="cls-53" d="M118,142,293,317,246,100Z"/><path class="cls-46" d="M167,21,118,142l128-42Z"/><polygon class="cls-57" points="159 1203 0.5 1284.01 0.5 1165.87 159 1203"/><polygon class="cls-11" points="810 1854 667.63 2018 649.22 2018 621 1835 810 1854"/><polygon class="cls-2" points="1106 1980 1089.02 2018 949.61 2018 941 1985 1106 1980"/><polygon class="cls-25" points="1640 2004 1636.88 2018 1484 2018 1435 1969 1640 2004"/><path class="cls-51" d="M2002,156,1866,360l132-38Z"/><polygon class="cls-40" points="1682 6 1677 1 1681.83 1 1682 6"/><path class="cls-53" d="M78,1632l179,179,43-127Z"/><path class="cls-37" d="M300,1684l-43,127,239,69Z"/><polygon class="cls-17" points="649.22 2018 634 2018 496 1880 621 1835 649.22 2018"/><path class="cls-46" d="M78,1632l222,52L148,1532Z"/><path class="cls-52" d="M2141,295,2002,156l-4,166Z"/><polygon class="cls-39" points="634 2018 590.29 2018 412 1966 496 1880 634 2018"/><polygon class="cls-54" points="148 1532 78 1632 0.5 1554.5 0.5 1495.94 148 1532"/><polygon class="cls-43" points="439.7 1 246 100 247.18 1 439.7 1"/><polygon class="cls-48" points="118 142 102 296 0.5 194.5 0.5 173.57 118 142"/><path class="cls-58" d="M2185,1529l-10-180-198,142Z"/><path class="cls-64" d="M1977,1491l198-142-219-49Z"/><path class="cls-51" d="M2025,1709l-48-218-126,214Z"/><polygon class="cls-34" points="1687.37 1 1682 6 1681.83 1 1687.37 1"/><path class="cls-32" d="M257,1811l155,155,84-86Z"/><path class="cls-63" d="M2309,293l-168,2-17,153Z"/><path class="cls-59" d="M2124,448l17-153-143,27Z"/><polygon class="cls-56" points="144 1358 0.5 1435.27 0.5 1330.67 144 1358"/><path class="cls-55" d="M78,1632l42,212,137-33Z"/><polygon class="cls-57" points="118 142 0.5 173.57 0.5 24.5 118 142"/><path class="cls-26" d="M1435,1969l205,35-165-165Z"/><path class="cls-51" d="M1970,1824l55-115-174-4Z"/><polygon class="cls-35" points="1435 1969 1401.11 2018 1276.51 2018 1271 1975 1435 1969"/><path class="cls-44" d="M1970,1824l-119-119-73,97Z"/><path class="cls-65" d="M2360,1194l-39-209-122,48Z"/><path class="cls-61" d="M2199,1033l132-208-202-32Z"/><path class="cls-65" d="M2321,985l10-160-132,208Z"/><polygon class="cls-8" points="949.61 2018 897.15 2018 941 1985 949.61 2018"/><polygon class="cls-16" points="1271 1975 1253.59 2018 1116.74 2018 1106 1980 1271 1975"/><path class="cls-52" d="M2025,1709l160-180-208-38Z"/><path class="cls-62" d="M2175,1349l132-38-188-188Z"/><polygon class="cls-54" points="120 1844 0.5 1724.5 0.5 1660.75 78 1632 120 1844"/><path class="cls-52" d="M2121,105l-83-83-36,134Z"/><path class="cls-47" d="M2002,156l36-134-253,87Z"/><path class="cls-44" d="M1815,2009l155-185-192-22Z"/><path class="cls-66" d="M2025,1709l161-9-1-171Z"/><polygon class="cls-56" points="78 1632 0.5 1660.75 0.5 1554.5 78 1632"/><path class="cls-67" d="M257,1811l8,178,147-23Z"/><polygon class="cls-23" points="590.29 2018 464 2018 412 1966 590.29 2018"/><path class="cls-59" d="M2141,295l-20-190-119,51Z"/><polygon class="cls-47" points="2038 22 1980.57 1 2034.08 1 2038 22"/><path class="cls-63" d="M2309,293,2121,105l20,190Z"/><polygon class="cls-1" points="1116.74 2018 1089.02 2018 1106 1980 1116.74 2018"/><polygon class="cls-31" points="464 2018 415.69 2018 412 1966 464 2018"/><path class="cls-65" d="M2327,1501l-20-190-132,38Z"/><path class="cls-68" d="M2473,797l-93-93-49,121Z"/><path class="cls-53" d="M120,1844l145,145-8-178Z"/><path class="cls-65" d="M2380,704l-56-226L2117,611Z"/><path class="cls-69" d="M2473,797l-142,28,156,156Z"/><path class="cls-65" d="M2331,825l49-121-251,89Z"/><polygon class="cls-48" points="167 21 118 142 0.5 24.5 0.5 1 76.17 1 167 21"/><path class="cls-70" d="M2307,1311l53-117-241-71Z"/><polygon class="cls-33" points="1815 2009 1801.16 2018 1636.88 2018 1640 2004 1815 2009"/><path class="cls-38" d="M1640,2004l175,5-37-207Z"/><polygon class="cls-12" points="1444.52 2018 1401.11 2018 1435 1969 1444.52 2018"/><polygon class="cls-26" points="1484 2018 1444.52 2018 1435 1969 1484 2018"/><polygon class="cls-56" points="120 1844 0.5 1833.72 0.5 1724.5 120 1844"/><polygon class="cls-43" points="294 2018 266.91 2018 265 1989 294 2018"/><polygon class="cls-37" points="415.69 2018 294 2018 265 1989 412 1966 415.69 2018"/><path class="cls-68" d="M2487,301l-178-8,15,185Z"/><path class="cls-70" d="M2324,478l-15-185L2124,448Z"/><path class="cls-52" d="M2200,1884l-175-175-55,115Z"/><path class="cls-66" d="M2200,1884l-14-184-161,9Z"/><path class="cls-61" d="M2185,1529l142-28-152-152Z"/><path class="cls-69" d="M2470,1304l-14-184-96,74Z"/><polygon class="cls-48" points="167 21 76.17 1 160.77 1 167 21"/><polygon class="cls-46" points="185.2 1 167 21 160.77 1 185.2 1"/><path class="cls-61" d="M2186,1700l141-199-142,28Z"/><path class="cls-68" d="M2470,1304l-110-110-53,117Z"/><path class="cls-68" d="M2360,1194l96-74L2321,985Z"/><path class="cls-68" d="M2380,704l87-83L2324,478Z"/><path class="cls-68" d="M2487,981,2331,825l-10,160Z"/><polygon class="cls-58" points="2143.29 1 2121 105 2038 22 2079.63 1 2143.29 1"/><polygon class="cls-52" points="2079.63 1 2038 22 2034.08 1 2079.63 1"/><polygon class="cls-62" points="2311.67 1 2121 105 2143.29 1 2311.67 1"/><path class="cls-46" d="M120,1844l-7,163,152-18Z"/><polygon class="cls-54" points="120 1844 113 2007 0.5 1894.5 0.5 1833.72 120 1844"/><path class="cls-69" d="M2456,1120l31-139-166,4Z"/><path class="cls-71" d="M2508,492l-41,129,169-1Z"/><path class="cls-69" d="M2473,797l-6-176-87,83Z"/><path class="cls-70" d="M2309,293l52-118-240-70Z"/><polygon class="cls-47" points="1995.73 2018 1963.09 2018 1815 2009 1970 1824 1995.73 2018"/><path class="cls-65" d="M2186,1700l177,7-36-206Z"/><polygon class="cls-49" points="1963.09 2018 1816.23 2018 1815 2009 1963.09 2018"/><polygon class="cls-46" points="124 2018 112.46 2018 113 2007 124 2018"/><polygon class="cls-53" points="266.91 2018 124 2018 113 2007 265 1989 266.91 2018"/><polygon class="cls-57" points="113 2007 81.5 2018 0.5 2018 0.5 1894.5 113 2007"/><path class="cls-72" d="M2548,1552l-78-248-143,197Z"/><path class="cls-73" d="M2327,1501l143-197-163,7Z"/><path class="cls-71" d="M2456,1120l196-144-165,5Z"/><path class="cls-68" d="M2487,301,2361,175l-52,118Z"/><path class="cls-69" d="M2467,621l41-129-184-14Z"/><path class="cls-71" d="M2636,620l-169,1,6,176Z"/><path class="cls-58" d="M2146,2000l54-116-230-60Z"/><polygon class="cls-38" points="1816.23 2018 1801.16 2018 1815 2009 1816.23 2018"/><polygon class="cls-52" points="2146 2000 2011 2018 1995.73 2018 1970 1824 2146 2000"/><path class="cls-74" d="M2345,1859l18-152-177-7Z"/><path class="cls-69" d="M2508,492l-21-191L2324,478Z"/><polygon class="cls-65" points="2361 175 2121 105 2311.67 1 2342.68 1 2361 175"/><polygon class="cls-52" points="2146 2000 2133.55 2018 2011 2018 2146 2000"/><path class="cls-61" d="M2200,1884l145-25-159-159Z"/><polygon class="cls-48" points="113 2007 112.46 2018 81.5 2018 113 2007"/><polygon class="cls-75" points="2492 136 2361 175 2342.68 1 2357 1 2492 136"/><path class="cls-68" d="M2363,1707l101-69-137-137Z"/><path class="cls-76" d="M2671,1165l-19-189-196,144Z"/><path class="cls-71" d="M2487,981l175-165-189-19Z"/><path class="cls-72" d="M2531,1875l-67-237-101,69Z"/><path class="cls-71" d="M2671,1165l-215-45,14,184Z"/><path class="cls-71" d="M2508,492l114-226-135,35Z"/><path class="cls-76" d="M2662,816l-26-196L2473,797Z"/><path class="cls-72" d="M2487,301l5-165-131,39Z"/><path class="cls-77" d="M2652,976l10-160L2487,981Z"/><path class="cls-65" d="M2291,1975l54-116-145,25Z"/><path class="cls-62" d="M2146,2000l145-25-91-91Z"/><path class="cls-71" d="M2622,266,2492,136l-5,165Z"/><path class="cls-78" d="M2692,1526l-144,26,113,113Z"/><path class="cls-72" d="M2464,1638l84-86-221-51Z"/><path class="cls-77" d="M2715,1379l-44-214-201,139Z"/><path class="cls-79" d="M2823,977l-27-197-134,36Z"/><polygon class="cls-62" points="2291 1975 2277.55 2018 2150.92 2018 2146 2000 2291 1975"/><path class="cls-80" d="M2692,1526l23-147-167,173Z"/><path class="cls-77" d="M2636,620l53-117-181-11Z"/><polygon class="cls-72" points="2542 16 2492 136 2357 1 2444.74 1 2542 16"/><path class="cls-81" d="M2850,664,2689,503l-53,117Z"/><path class="cls-82" d="M2796,780,2636,620l26,196Z"/><path class="cls-77" d="M2689,503l-67-237L2508,492Z"/><path class="cls-76" d="M2690,164,2542,16l-50,120Z"/><path class="cls-83" d="M2548,1552l-84,86,197,27Z"/><path class="cls-76" d="M2548,1552l167-173-245-75Z"/><path class="cls-84" d="M2823,977,2662,816l-10,160Z"/><path class="cls-84" d="M2823,977l-171-1,19,189Z"/><path class="cls-84" d="M2816,290,2690,164l-68,102Z"/><path class="cls-77" d="M2622,266l68-102-198-28Z"/><path class="cls-75" d="M2531,1875l-168-168-18,152Z"/><polygon class="cls-58" points="2150.92 2018 2133.55 2018 2146 2000 2150.92 2018"/><polygon class="cls-85" points="2535.09 2018 2504 2018 2345 1859 2531 1875 2535.09 2018"/><path class="cls-79" d="M2868,1192l-197-27,44,214Z"/><path class="cls-86" d="M2868,1192l-45-215-152,188Z"/><polygon class="cls-68" points="2504 2018 2431.47 2018 2291 1975 2345 1859 2504 2018"/><path class="cls-83" d="M2531,1875l130-210-197-27Z"/><path class="cls-87" d="M2860,1354l8-162-153,187Z"/><path class="cls-84" d="M2816,290l-194-24,67,237Z"/><polygon class="cls-72" points="2542 16 2444.74 1 2537.41 1 2542 16"/><polygon class="cls-71" points="2555.33 1 2542 16 2537.41 1 2555.33 1"/><path class="cls-88" d="M2961,775,2850,664l-54,116Z"/><path class="cls-79" d="M2796,780l54-116-214-44Z"/><polygon class="cls-77" points="2690 164 2542 16 2555.33 1 2643.43 1 2690 164"/><polygon class="cls-84" points="2793.44 1 2690 164 2643.43 1 2793.44 1"/><path class="cls-87" d="M2860,1354l-145,25,138,138Z"/><path class="cls-88" d="M2823,977l138-202-165,5Z"/><polygon class="cls-65" points="2302.08 2018 2277.55 2018 2291 1975 2302.08 2018"/><path class="cls-78" d="M2531,1875l171,1-41-211Z"/><polygon class="cls-89" points="3014 601.33 3014 658 2860 504 2978 452 3014 601.33"/><path class="cls-86" d="M2850,664l10-160-171-1Z"/><path class="cls-86" d="M2860,504l-44-214L2689,503Z"/><path class="cls-86" d="M2853,1517l-161,9,127,127Z"/><path class="cls-79" d="M2853,1517l-138-138-23,147Z"/><polygon class="cls-68" points="2431.47 2018 2302.08 2018 2291 1975 2431.47 2018"/><path class="cls-84" d="M2819,1653l-127-127-31,139Z"/><polygon class="cls-90" points="3014 1016.98 3014 1046 2868 1192 2823 977 3014 1016.98"/><polygon class="cls-91" points="3014 945.01 3014 1016.98 2823 977 2961 775 3014 945.01"/><polygon class="cls-92" points="3014 172.86 3014 194.03 2816 290 2833 137 3014 172.86"/><polygon class="cls-89" points="3014 1173.63 3014 1338 2868 1192 3014 1173.63"/><polygon class="cls-78" points="2702 1876 2691.22 2018 2674 2018 2531 1875 2702 1876"/><path class="cls-79" d="M2811,1815l8-162-158,12Z"/><path class="cls-92" d="M2978,452,2816,290l44,214Z"/><path class="cls-86" d="M2816,290l17-153-143,27Z"/><polygon class="cls-90" points="3014 658 3014 674.81 2850 664 2860 504 3014 658"/><path class="cls-81" d="M2702,1876l109-61-150-150Z"/><polygon class="cls-89" points="3014 1338 3014 1541.15 2853 1517 3014 1338"/><path class="cls-90" d="M3014,1338l-146-146-8,162Z"/><polygon class="cls-86" points="2846.48 2018 2844 2018 2702 1876 2811 1815 2846.48 2018"/><path class="cls-90" d="M3014,1338l-154,16-7,163Z"/><polygon class="cls-91" points="3014 674.81 3014 701.1 2961 775 2850 664 3014 674.81"/><polygon class="cls-89" points="3014 1046 3014 1173.63 2868 1192 3014 1046"/><polygon class="cls-93" points="3014 701.1 3014 792.25 2961 775 3014 701.1"/><polygon class="cls-92" points="2978.95 1 2833 137 2824.73 1 2978.95 1"/><polygon class="cls-86" points="2833 137 2690 164 2793.44 1 2824.73 1 2833 137"/><polygon class="cls-76" points="2674 2018 2535.09 2018 2531 1875 2674 2018"/><polygon class="cls-89" points="3014 1541.15 3014 1678 2853 1517 3014 1541.15"/><polygon class="cls-91" points="3014 326.17 3014 354.96 2978 452 2816 290 3014 326.17"/><polygon class="cls-93" points="3014 354.96 3014 460.31 2978 452 3014 354.96"/><polygon class="cls-92" points="3014 1690.14 3014 1701.39 2811 1815 2819 1653 3014 1690.14"/><polygon class="cls-92" points="3014 1678 3014 1690.14 2819 1653 2853 1517 3014 1678"/><polygon class="cls-94" points="3014 828 3014 945.01 2961 775 3014 828"/><polygon class="cls-94" points="3014 488 3014 601.33 2978 452 3014 488"/><polygon class="cls-89" points="3014 194.03 3014 326.17 2816 290 3014 194.03"/><polygon class="cls-81" points="2844 2018 2691.22 2018 2702 1876 2844 2018"/><polygon class="cls-91" points="3014 1701.39 3014 1819.67 3011 1845 2811 1815 3014 1701.39"/><polygon class="cls-93" points="3014 1 3014 1.61 3013.89 1 3014 1"/><polygon class="cls-89" points="3014 1.61 3014 172.86 2833 137 2978.95 1 3013.89 1 3014 1.61"/><polygon class="cls-95" points="3014 792.25 3014 828 2961 775 3014 792.25"/><polygon class="cls-92" points="3011 1845 2849.8 2018 2846.48 2018 2811 1815 3011 1845"/><polygon class="cls-95" points="3014 460.31 3014 488 2978 452 3014 460.31"/><polygon class="cls-89" points="3014 2018 2849.8 2018 3011 1845 3014 2018"/><polygon class="cls-93" points="3014 1819.67 3014 1842.9 3011 1845 3014 1819.67"/><polygon class="cls-96" points="3014 1842.9 3014 1845.38 3011 1845 3014 1842.9"/><polygon class="cls-94" points="3014 1848 3014 2018 3011 1845 3014 1848"/><polygon class="cls-97" points="3014 1845.38 3014 1848 3011 1845 3014 1845.38"/></g><rect class="cls-98" x="0.5" y="1" width="3013.5" height="2017"/></g></g></g></g></svg>