<svg xmlns="http://www.w3.org/2000/svg" viewBox="0 0 94.7 60"><defs><style>.cls-1{fill:#999;}</style></defs><g id="Calque_2" data-name="Calque 2"><g id="Calque_1-2" data-name="Calque 1"><path class="cls-1" d="M47.35,60c-10.7,0-22.3-5-33.4-14.3A86.08,86.08,0,0,1,.45,31.5a2.72,2.72,0,0,1,0-3A91.55,91.55,0,0,1,14,14.3C25.05,5,36.65,0,47.35,0s22.3,5,33.4,14.3a86.08,86.08,0,0,1,13.5,14.2,2.72,2.72,0,0,1,0,3,91.55,91.55,0,0,1-13.5,14.2C69.65,55,58.05,60,47.35,60ZM5.65,30c4.5,5.6,21.7,25,41.7,25s37.2-19.4,41.7-25c-4.5-5.6-21.7-25-41.7-25S10.15,24.4,5.65,30Z"/><path class="cls-1" d="M47.35,49.9A19.9,19.9,0,1,1,67.25,30,19.89,19.89,0,0,1,47.35,49.9Z"/></g></g></svg>