<svg xmlns="http://www.w3.org/2000/svg" viewBox="0 0 94.7 69.4"><defs><style>.cls-1{fill:#999;}</style></defs><g id="Calque_2" data-name="Calque 2"><g id="Calque_1-2" data-name="Calque 1"><path class="cls-1" d="M47.35,4.7c-10.7,0-22.3,5-33.4,14.3A91.55,91.55,0,0,0,.45,33.2a2.73,2.73,0,0,0,0,3A86.08,86.08,0,0,0,14,50.4q2.39,2,4.79,3.72l3.61-3.61A87.62,87.62,0,0,1,5.65,34.7c4.5-5.6,21.7-25,41.7-25a35.89,35.89,0,0,1,13.16,2.65l3.81-3.81A42.38,42.38,0,0,0,47.35,4.7Zm46.9,28.5A86.08,86.08,0,0,0,80.75,19Q78.36,17,76,15.28l-3.61,3.61A87.62,87.62,0,0,1,89.05,34.7c-4.5,5.6-21.7,25-41.7,25a35.89,35.89,0,0,1-13.16-2.65l-3.81,3.81a42.38,42.38,0,0,0,17,3.84c10.7,0,22.3-5,33.4-14.3a91.55,91.55,0,0,0,13.5-14.2A2.72,2.72,0,0,0,94.25,33.2Z"/><path class="cls-1" d="M56.06,16.8,29.45,43.41A19.91,19.91,0,0,1,56.06,16.8Z"/><path class="cls-1" d="M67.25,34.7A19.91,19.91,0,0,1,38.64,52.6L65.25,26A19.86,19.86,0,0,1,67.25,34.7Z"/><polygon class="cls-1" points="82.05 3.53 72.59 12.99 26.57 59.01 16.18 69.4 12.65 65.87 22.11 56.41 68.13 10.39 78.52 0 82.05 3.53"/></g></g></svg>