<svg xmlns="http://www.w3.org/2000/svg" viewBox="0 0 66.2 54.5"><defs><style>.cls-1{fill:#fff;}</style></defs><g id="Calque_2" data-name="Calque 2"><g id="Calque_1-2" data-name="Calque 1"><path class="cls-1" d="M27,0H63.7a2.24,2.24,0,0,1,1.7.7.1.1,0,0,1,.1.1,2.41,2.41,0,0,1,.7,1.7V52a2.24,2.24,0,0,1-.7,1.7l-.1.1a2.41,2.41,0,0,1-1.7.7H27c-3.2,0-3.2-5,0-5H61.2V5H27C23.8,5,23.8,0,27,0Z"/><path class="cls-1" d="M.9,28.1A1.78,1.78,0,0,1,.9,25c6-4.5,11.9-9.1,17.9-13.6l1.3-1c1.1-.9,2.7.3,2.7,1.6,0,4.1.1,9.1.1,13.3H41.8c2.9,0,2.9,4.6,0,4.6H22.9V42.2a1.75,1.75,0,0,1-.7,1.4,2,2,0,0,1-2.2.1h-.1l-.1-.1C13.9,39.1,8,33.7,2.1,29.2A6,6,0,0,0,.9,28.1Z"/></g></g></svg>