<svg xmlns="http://www.w3.org/2000/svg" viewBox="0 0 608.5 318.39"><defs><style>.cls-1{fill:#fff;}</style></defs><g id="Calque_2" data-name="Calque 2"><g id="Calque_1-2" data-name="Calque 1"><path class="cls-1" d="M115,37c2.59,15.38,5.8,27.71,14.89,41.62a.49.49,0,0,1-.69.67C118.4,71.68,95,56.85,86.8,65.2a.49.49,0,0,1-.82-.5c4.26-12,14.64-22.13,29-27.7Zm-8.25,8.25a22.45,22.45,0,0,0-6,9.15.49.49,0,0,0,.9.38,39.06,39.06,0,0,1,5.83-8.84A.49.49,0,0,0,106.77,45.25Zm-13.09,20c15,.57,32.3,18.38,50.19,22.44a.49.49,0,0,1,.37.62c-.87,2.58-3.37,5.68-5.92,8.21a.49.49,0,0,1-.3.14c-13.07,1.19-23.11-8.58-38.36-5.93a.49.49,0,0,1-.53-.28,59.91,59.91,0,0,1-6-24.71.49.49,0,0,1,.5-.49Zm-3.24.36A55.11,55.11,0,0,0,95.05,87.9a.49.49,0,0,1-.82.5C86.88,79.53,87.5,69,90.44,65.59Zm13.23,27.2c14-.2,25.55,8.33,37.48,5.56a.49.49,0,0,1,.34.91c-13,6.66-34.49-6.41-52.56-1.59a.49.49,0,0,1-.35-.91A32.63,32.63,0,0,1,103.67,92.79Z"/><path class="cls-1" d="M274.12,142.39H242.51V.16h31.61a30.45,30.45,0,0,1,22.34,9.26,30.43,30.43,0,0,1,9.26,22.35v15.8A30.25,30.25,0,0,1,295,71.23a32,32,0,0,1,7.9,10.62A30.72,30.72,0,0,1,305.72,95v15.81a31.62,31.62,0,0,1-31.6,31.6ZM258.31,16V63.38h15.81a15.74,15.74,0,0,0,15.8-15.81V31.77a15.29,15.29,0,0,0-4.61-11.15A15.16,15.16,0,0,0,274.12,16Zm0,63.21v47.41h15.81a15.74,15.74,0,0,0,15.8-15.8V95a15.81,15.81,0,0,0-15.8-15.8Z"/><path class="cls-1" d="M345,142.39a23.85,23.85,0,0,1-23.76-23.75V55.43A23.85,23.85,0,0,1,345,31.77a30.43,30.43,0,0,1,7.85,1.36V31.77h15.8V142.39h-15.8V141A30.79,30.79,0,0,1,345,142.39Zm5.57-92.49A7.51,7.51,0,0,0,345,47.57a7.69,7.69,0,0,0-5.63,2.33A7.54,7.54,0,0,0,337,55.43v63.21a7.94,7.94,0,0,0,7.95,8,7.51,7.51,0,0,0,5.57-2.33,7.73,7.73,0,0,0,2.28-5.62V55.43A7.62,7.62,0,0,0,350.56,49.9Z"/><path class="cls-1" d="M384.16.16H400V31.77h23.66v15.8H400v71.07a7.73,7.73,0,0,0,2.28,5.62,7.5,7.5,0,0,0,5.57,2.33h15.81v15.8H407.81A22.75,22.75,0,0,1,391,135.46a23,23,0,0,1-6.88-16.82Z"/><path class="cls-1" d="M435.25,118.64V55.43A23.83,23.83,0,0,1,459,31.77a22.73,22.73,0,0,1,16.73,7,22.85,22.85,0,0,1,6.93,16.68V95H451.05v23.66a8,8,0,0,0,7.95,8,7.52,7.52,0,0,0,5.58-2.33,7.73,7.73,0,0,0,2.28-5.62v-7.85h15.8v7.85a23.71,23.71,0,0,1-47.41,0Zm15.8-63.21V79.18h15.81V55.43a7.62,7.62,0,0,0-2.28-5.53A7.52,7.52,0,0,0,459,47.57a7.67,7.67,0,0,0-5.62,2.33A7.55,7.55,0,0,0,451.05,55.43Z"/><path class="cls-1" d="M521.93,142.39a23.83,23.83,0,0,1-23.76-23.75V55.43a23.83,23.83,0,0,1,23.76-23.66,30.43,30.43,0,0,1,7.85,1.36V31.77h15.8V142.39h-15.8V141A30.79,30.79,0,0,1,521.93,142.39ZM527.5,49.9a7.51,7.51,0,0,0-5.57-2.33,7.68,7.68,0,0,0-5.63,2.33A7.54,7.54,0,0,0,514,55.43v63.21a7.94,7.94,0,0,0,7.95,8,7.51,7.51,0,0,0,5.57-2.33,7.73,7.73,0,0,0,2.28-5.62V55.43A7.62,7.62,0,0,0,527.5,49.9Z"/><path class="cls-1" d="M584.85,142.39a23.85,23.85,0,0,1-23.76-23.75V31.77H576.9v86.87a7.94,7.94,0,0,0,8,8,7.5,7.5,0,0,0,5.57-2.33,7.73,7.73,0,0,0,2.28-5.62V31.77h15.8v86.87a23,23,0,0,1-6.88,16.82A22.75,22.75,0,0,1,584.85,142.39Z"/><path class="cls-1" d="M259.31,318.39h-15.8V176.16h31.61a31.62,31.62,0,0,1,31.6,31.61v15.8a31.62,31.62,0,0,1-31.6,31.61H259.31Zm0-79h15.81a15.74,15.74,0,0,0,15.8-15.81v-15.8a15.81,15.81,0,0,0-15.8-15.8H259.31Z"/><path class="cls-1" d="M338,192H322.23V176.16H338Zm-15.81,15.8H338V318.39H322.23Z"/><path class="cls-1" d="M369.35,318.39h-15.8v-87a23.49,23.49,0,0,1,23.66-23.66H393v15.8h-15.8a7.79,7.79,0,0,0-7.86,7.86Z"/><path class="cls-1" d="M428.4,318.39a23.83,23.83,0,0,1-23.76-23.75V231.43a23.83,23.83,0,0,1,23.76-23.66,30.43,30.43,0,0,1,7.85,1.36v-1.36h15.8V318.39h-15.8V317A30.79,30.79,0,0,1,428.4,318.39ZM434,225.9a7.51,7.51,0,0,0-5.57-2.33,7.68,7.68,0,0,0-5.63,2.33,7.54,7.54,0,0,0-2.32,5.53v63.21a7.94,7.94,0,0,0,7.95,7.95,7.51,7.51,0,0,0,5.57-2.33,7.73,7.73,0,0,0,2.28-5.62V231.43A7.62,7.62,0,0,0,434,225.9Z"/><path class="cls-1" d="M467.57,176.16h15.8v31.61H507v15.8H483.37v71.07a7.73,7.73,0,0,0,2.28,5.62,7.5,7.5,0,0,0,5.57,2.33H507v15.8H491.22a22.75,22.75,0,0,1-16.77-6.93,23,23,0,0,1-6.88-16.82Z"/><path class="cls-1" d="M518.66,294.64V231.43a23.71,23.71,0,0,1,47.41,0V271H534.46v23.66a8,8,0,0,0,7.95,7.95,7.52,7.52,0,0,0,5.58-2.33,7.73,7.73,0,0,0,2.28-5.62v-7.85h15.8v7.85a23,23,0,0,1-6.88,16.82,23.78,23.78,0,0,1-40.53-16.82Zm15.8-63.21v23.75h15.81V231.43A7.62,7.62,0,0,0,548,225.9a7.52,7.52,0,0,0-5.58-2.33,7.67,7.67,0,0,0-5.62,2.33A7.55,7.55,0,0,0,534.46,231.43Z"/><path class="cls-1" d="M164.67.12C162.79,0,160.91,0,159,0q-3.31,0-6.6.16C67.8,3.62,0,73.55,0,159S67.8,314.38,152.41,317.84q2.91.15,5.85.16h61.49V.12Zm-6.41,190.39a31.52,31.52,0,0,1,0-63Zm0,114.29q-2.94,0-5.85-.16C75.08,301.18,13.2,237.16,13.2,159S75.08,16.82,152.41,13.36q2.91-.15,5.85-.16V114.29a44.72,44.72,0,0,0,0,89.42Zm50.49,1.73h-39V11.59h39Z"/></g></g></svg>