<svg xmlns="http://www.w3.org/2000/svg" viewBox="0 0 100 85.52"><defs><style>.cls-1{fill:#fff;}</style></defs><g id="Calque_2" data-name="Calque 2"><g id="Calque_1-2" data-name="Calque 1"><path class="cls-1" d="M13.1,40.22a12.13,12.13,0,0,0,9.1-4.1,12.13,12.13,0,0,0,9.1,4.1A11.94,11.94,0,0,0,40.5,36a12.44,12.44,0,0,0,9.2,4.2A11.94,11.94,0,0,0,58.9,36a12.44,12.44,0,0,0,9.2,4.2A11.94,11.94,0,0,0,77.3,36a12.44,12.44,0,0,0,9.2,4.2,12.29,12.29,0,0,0,12.3-12.3,1.14,1.14,0,0,0-.3-.8L87,.72A1.21,1.21,0,0,0,85.7,0H13.2a.1.1,0,0,0-.1.1.1.1,0,0,0-.1.1l-.1.1a.1.1,0,0,1-.1.1l-.1.1a.1.1,0,0,1-.1.1v.1L.9,27.42h0v.5h0A12.08,12.08,0,0,0,13.1,40.22Zm72-37.8,11.5,25.8a9.84,9.84,0,0,1-17.9,5.3v-.1l-4.6-31Zm-13.4,0,4.6,31.3a9.83,9.83,0,0,1-15.9.1L58.6,2.42Zm-28.2,0H56.2l1.6,31.2a9.76,9.76,0,0,1-15.9.2Zm-2.4,0-1.6,31.1a9.92,9.92,0,0,1-8.1,4.3,10.15,10.15,0,0,1-7.9-3.9l4.6-31.4h13Zm-26.5,0h11L21,33.72a9.81,9.81,0,0,1-8,4.1,10,10,0,0,1-9.9-9.7Z"/><path class="cls-1" d="M98.8,83.22H89.4V46.72a1.2,1.2,0,0,0-2.4,0v36.4H37.5V46.72a1.2,1.2,0,0,0-2.4,0v36.4H14V46.72a1.2,1.2,0,0,0-2.4,0v36.4H1.2a1.2,1.2,0,1,0,0,2.4H98.8a1.16,1.16,0,0,0,1.2-1.2A1.13,1.13,0,0,0,98.8,83.22Z"/><path class="cls-1" d="M26.8,58.52V68a1.2,1.2,0,1,0,2.4,0v-9.5a1.2,1.2,0,1,0-2.4,0Z"/><path class="cls-1" d="M78.8,48.22a1.15,1.15,0,0,0-1.7,0L54.5,70.92a1.15,1.15,0,0,0,0,1.7,1.27,1.27,0,0,0,.9.4,1.09,1.09,0,0,0,.9-.4L78.9,50A1.37,1.37,0,0,0,78.8,48.22Z"/><path class="cls-1" d="M62.3,79.92a1.22,1.22,0,0,0,.9-.4l16.1-16.1a1.2,1.2,0,0,0-1.7-1.7L61.4,77.82a1.15,1.15,0,0,0,0,1.7A1.22,1.22,0,0,0,62.3,79.92Z"/></g></g></svg>