<svg xmlns="http://www.w3.org/2000/svg" viewBox="0 0 668.52 668.51"><defs><style>.cls-1,.cls-2{fill:#363636;}.cls-2{fill-rule:evenodd;}</style></defs><g id="Calque_2" data-name="Calque 2"><g id="Calque_1-2" data-name="Calque 1"><circle class="cls-1" cx="67.1" cy="66.96" r="66.96"/><circle class="cls-1" cx="66.96" cy="334.25" r="66.96"/><circle class="cls-1" cx="67.22" cy="601.55" r="66.96"/><path class="cls-2" d="M259.54,134.09H601.69a66.83,66.83,0,1,0,0-133.65H259.54a66.82,66.82,0,1,0,0,133.64Z"/><path class="cls-2" d="M601.69,267.12H259.54a66.83,66.83,0,0,0,0,133.66l342.15,0a66.82,66.82,0,1,0,0-133.64Z"/><path class="cls-2" d="M601.69,534.2H259.54a66.83,66.83,0,1,0,0,133.65H601.69a66.82,66.82,0,1,0,0-133.64Z"/></g></g></svg>