<svg xmlns="http://www.w3.org/2000/svg" viewBox="0 0 70.44 90"><defs><style>.cls-1{fill:#fff;}</style></defs><g id="Calque_2" data-name="Calque 2"><g id="Calque_1-2" data-name="Calque 1"><path class="cls-1" d="M35.22,40.29c10.4,0,18.86-11,18.86-21.43a18.86,18.86,0,0,0-37.72,0C16.37,29.26,24.82,40.29,35.22,40.29Z"/><path class="cls-1" d="M20.45,66.81l3.91-3.9a6.39,6.39,0,0,1,9,0l1.83,1.83,1.83-1.83a6.39,6.39,0,0,1,9,0L50,66.81a6.39,6.39,0,0,1,0,9l-.82.82c12.51-1.91,21.27-6.3,21.27-11.41A25.1,25.1,0,0,0,49.38,40.48a21.64,21.64,0,0,1-13.17,4.45h-2a21.67,21.67,0,0,1-13.17-4.45A25.11,25.11,0,0,0,0,65.25c0,5.11,8.76,9.5,21.27,11.41l-.82-.82A6.39,6.39,0,0,1,20.45,66.81Z"/><path class="cls-1" d="M42.05,77.68l4.89-4.89a2.07,2.07,0,0,0,0-2.93L43,66a2.07,2.07,0,0,0-1.46-.61A2.11,2.11,0,0,0,40.1,66l-4.88,4.88L30.34,66a2.11,2.11,0,0,0-1.47-.61,2.07,2.07,0,0,0-1.46.61l-3.91,3.9a2.07,2.07,0,0,0,0,2.93l4.89,4.89L23.5,82.56a2.07,2.07,0,0,0,0,2.93l3.91,3.9a2,2,0,0,0,1.46.61,2.07,2.07,0,0,0,1.47-.61l4.88-4.88,4.88,4.88a2.07,2.07,0,0,0,1.47.61A2,2,0,0,0,43,89.39l3.91-3.9a2.07,2.07,0,0,0,0-2.93Z"/></g></g></svg>